<mxfile host="drawio-plugin" modified="2024-10-31T08:51:37.894Z" agent="5.0 (Macintosh; Intel Mac OS X 10_15_7) AppleWebKit/537.36 (KHTML, like Gecko) Chrome/122.0.0.0 Safari/537.36" etag="-AmWSgK2vDaGJSkhHU6z" version="20.5.3" type="embed"><diagram id="2zJQCCvsDvWX1xug0e1S" name="Page-1"><mxGraphModel dx="957" dy="402" grid="1" gridSize="10" guides="1" tooltips="1" connect="1" arrows="1" fold="1" page="1" pageScale="1" pageWidth="850" pageHeight="1100" math="0" shadow="0"><root><mxCell id="0"/><mxCell id="1" parent="0"/><mxCell id="15" style="edgeStyle=orthogonalEdgeStyle;rounded=0;orthogonalLoop=1;jettySize=auto;html=1;exitX=0.25;exitY=0;exitDx=0;exitDy=0;entryX=0;entryY=0.25;entryDx=0;entryDy=0;" parent="1" source="10" target="11" edge="1"><mxGeometry relative="1" as="geometry"/></mxCell><mxCell id="16" value="set ctx&lt;br&gt;用户信息" style="edgeLabel;html=1;align=center;verticalAlign=middle;resizable=0;points=[];" parent="15" vertex="1" connectable="0"><mxGeometry x="-0.3225" relative="1" as="geometry"><mxPoint as="offset"/></mxGeometry></mxCell><mxCell id="10" value="认证中心" style="rounded=0;whiteSpace=wrap;html=1;" parent="1" vertex="1"><mxGeometry x="160" y="270" width="340" height="70" as="geometry"/></mxCell><mxCell id="11" value="" style="rounded=0;whiteSpace=wrap;html=1;" parent="1" vertex="1"><mxGeometry x="340" y="60" width="120" height="110" as="geometry"/></mxCell><mxCell id="13" style="edgeStyle=orthogonalEdgeStyle;rounded=0;orthogonalLoop=1;jettySize=auto;html=1;entryX=0.5;entryY=0;entryDx=0;entryDy=0;exitX=0;exitY=0.5;exitDx=0;exitDy=0;" parent="1" source="12" target="10" edge="1"><mxGeometry relative="1" as="geometry"/></mxCell><mxCell id="14" value="Token 校验" style="edgeLabel;html=1;align=center;verticalAlign=middle;resizable=0;points=[];" parent="13" vertex="1" connectable="0"><mxGeometry x="0.1754" y="-1" relative="1" as="geometry"><mxPoint as="offset"/></mxGeometry></mxCell><mxCell id="12" value="mcent client" style="rounded=0;whiteSpace=wrap;html=1;" parent="1" vertex="1"><mxGeometry x="357.5" y="120" width="85" height="30" as="geometry"/></mxCell><mxCell id="17" value="&lt;h1&gt;Token 校验逻辑&lt;/h1&gt;&lt;p&gt;1. 判断 AccessToken 是否过期，没有过期继续使用，服务端不执行任何操作&lt;/p&gt;&lt;p&gt;2. 如果过期，则判断 RefreshToken 是否过期，如果没有过期则延长下 AccessToken，即更新下 CreatedAt 颁发时间&lt;/p&gt;" style="text;html=1;strokeColor=none;fillColor=none;spacing=5;spacingTop=-20;whiteSpace=wrap;overflow=hidden;rounded=0;" vertex="1" parent="1"><mxGeometry x="60" y="410" width="690" height="150" as="geometry"/></mxCell></root></mxGraphModel></diagram></mxfile>